<?xml version="1.0" encoding="UTF-8" standalone="no"?>
<!-- Created with Inkscape (http://www.inkscape.org/) -->

<svg
   xmlns:dc="http://purl.org/dc/elements/1.1/"
   xmlns:cc="http://creativecommons.org/ns#"
   xmlns:rdf="http://www.w3.org/1999/02/22-rdf-syntax-ns#"
   xmlns:svg="http://www.w3.org/2000/svg"
   xmlns="http://www.w3.org/2000/svg"
   xmlns:sodipodi="http://sodipodi.sourceforge.net/DTD/sodipodi-0.dtd"
   xmlns:inkscape="http://www.inkscape.org/namespaces/inkscape"
   width="744.09448819"
   height="1052.3622047"
   id="svg3529"
   version="1.1"
   inkscape:version="0.48.4 r9939"
   sodipodi:docname="New document 3">
  <defs
     id="defs3531" />
  <sodipodi:namedview
     id="base"
     pagecolor="#ffffff"
     bordercolor="#666666"
     borderopacity="1.0"
     inkscape:pageopacity="0.0"
     inkscape:pageshadow="2"
     inkscape:zoom="0.35"
     inkscape:cx="35"
     inkscape:cy="520"
     inkscape:document-units="px"
     inkscape:current-layer="layer1"
     showgrid="false"
     inkscape:window-width="1916"
     inkscape:window-height="1041"
     inkscape:window-x="1600"
     inkscape:window-y="18"
     inkscape:window-maximized="0" />
  <metadata
     id="metadata3534">
    <rdf:RDF>
      <cc:Work
         rdf:about="">
        <dc:format>image/svg+xml</dc:format>
        <dc:type
           rdf:resource="http://purl.org/dc/dcmitype/StillImage" />
        <dc:title></dc:title>
      </cc:Work>
    </rdf:RDF>
  </metadata>
  <g
     inkscape:label="Layer 1"
     inkscape:groupmode="layer"
     id="layer1">
    <g
       id="g3582"
       transform="translate(263.47581,-1054.7523)">
      <path
         d="m -99.676063,1736.6763 0,-38.1888 c 0,-5.0104 3.138425,-9.0493 8.330675,-9.0493 l 1.441675,0 c 5.192252,0 8.315142,4.0389 8.315142,9.0493 l 0,80.4011 c 0,19.6135 -9.688067,35.2124 -26.564539,45.1511 -7.82719,4.5978 -16.47503,6.9622 -25.54649,6.9622 l -3.58645,0 c -19.60901,0 -35.19108,-9.7014 -45.14508,-26.5624 -4.61868,-7.8272 -6.96506,-16.4639 -6.96506,-25.5509 l 0,-3.5887 c 0,-19.6112 9.69249,-35.199 26.55699,-45.1488 7.83385,-4.6245 16.46837,-6.9755 25.55315,-6.9755 l 3.58645,0 c 13.27006,0 24.53066,5.1501 34.023536,13.5007 z m -71.635747,40.4246 c 0,14.1617 6.86458,24.7991 19.27408,31.5883 5.01704,2.7502 10.46658,4.2252 16.19114,4.2252 13.90219,0 24.21128,-6.5497 31.32206,-18.3381 3.3092,-5.4762 4.848467,-11.4758 4.848467,-17.8502 0,-12.2742 -5.811067,-21.8514 -15.703177,-28.9755 -5.99959,-4.3117 -12.75106,-6.4742 -20.1147,-6.4742 -15.1509,0 -26.0544,7.6498 -32.60116,21.2503 -2.20998,4.6001 -3.21671,9.4862 -3.21671,14.5742 z m 152.464959,-53.9253 2.5063,0 c 20.9552996,0 36.89136,10.176 46.98975,28.4631 4.03891,7.3126 6.1992,15.2995 6.1992,23.6612 l 0,3.5887 c 0,19.6001 -9.66588,35.2257 -26.57119,45.1511 -7.8271904,4.5867 -16.4728104,6.9622 -25.54205,6.9622 l -3.58201,0 c -19.60901,0 -35.19241,-9.7014 -45.14441,-26.5624 -4.6178,-7.8272 -6.97105,-16.4639 -6.97105,-25.5509 l 0,-3.5887 c 0,-19.6112 9.7302,-35.148 26.55343,-45.1488 7.82277,-4.6511 16.47282,-6.9755 25.56203,-6.9755 z m -34.0302,53.9253 c 0,13.7381 6.74704,23.8498 18.35807,30.9628 5.45398,3.338 11.45578,4.8507 17.82799,4.8507 13.5827996,0 23.6235196,-6.889 30.61231,-18.3515 3.3336,-5.4628 4.8396,-11.4735 4.8396,-17.8368 0,-12.7755 -6.15707,-22.55 -16.6812904,-29.6253 -5.77114,-3.8748 -12.1899296,-5.8244 -19.1365896,-5.8244 -15.1509,0 -26.0544,7.6498 -32.59739,21.2503 -2.21575,4.6001 -3.2227,9.4862 -3.2227,14.5742 z m 164.912161,-34.374 c -2.72809,-1.2886 -7.8405,-1.7144 -10.7926,-1.8253 -15.110981,-0.5634 -26.043321,7.9491 -32.457661,21.2747 -2.21352,4.6 -3.22493,9.4618 -3.22493,14.5498 0,15.4991 8.13328,26.3383 21.96005,32.95 5.05252,2.4132 11.57333,2.8745 17.093841,2.8745 4.85513,0 11.71528,-2.9743 16.02478,-5.0237 l 0.74746,-0.3504 3.34246,0 0.3704,0.075 c 4.1121,0.8495 7.21725,3.4622 7.21725,7.8871 l 0,1.7877 c 0,11.0121 -20.12579,13.5384 -27.80216,14.0618 -27.099061,1.8875 -47.364591,-12.9994 -55.091961,-38.8498 -1.34188,-4.4869 -1.94517,-8.9384 -1.94517,-13.6249 l 0,-3.5754 c 0,-19.6112 9.7302,-35.1503 26.55345,-45.1377 7.82054,-4.6489 16.47059,-6.9755 25.55759,-6.9755 l 3.586441,0 c 9.63705,0 18.51777,2.7391 26.47582,8.1754 l 0.6543,0.4502 0.41475,0.6743 c 0.85837,1.4261 1.59694,3.0763 1.59694,4.7752 l 0,1.7877 c 0,4.6134 -3.45559,7.1019 -7.62535,7.9004 l -0.34379,0.062 -1.06683,0 c -2.70149,0 -8.83415,-2.7991 -11.24508,-3.9236 z m 58.66289,12.2365 c 7.02429,-7.0242 14.0752,-14.0485 21.20373,-20.9619 1.9873,-1.9385 9.5084,-10.1006 12.4716,-10.1006 l 3.23822,0 0.36819,0.075 c 4.12541,0.8494 7.21725,3.4622 7.21725,7.9004 l 0,1.7876 c 0,3.0231 -3.54209,6.5364 -5.4939,8.6124 -4.15646,4.4004 -8.5325,8.6611 -12.78433,12.9751 l -21.84915,22.1862 c 9.40859,9.4264 18.8061,18.8638 28.13707,28.3633 2.58171,2.6261 5.16563,5.2633 7.70742,7.9248 0.89827,0.9493 2.2224,2.1248 2.97872,3.4379 0.80734,1.2243 1.30417,2.5994 1.30417,4.0877 l 0,1.8608 -0.10425,0.4392 c -1.01583,4.1254 -3.63524,7.4501 -8.20868,7.4501 l -1.43724,0 c -2.99424,0 -6.37221,-3.389 -8.42382,-5.3253 -4.22079,-3.9746 -8.29961,-8.1643 -12.44055,-12.2254 l -13.88445,-13.6383 0,21.7871 c 0,5.0148 -3.14285,9.0515 -8.33066,9.0515 l -1.42615,0 c -5.19225,0 -8.32845,-4.0367 -8.32845,-9.0515 l 0,-122.762 c 0,-5.0126 3.13841,-9.0249 8.32845,-9.0249 l 1.42615,0 c 5.18781,0 8.33066,4.0123 8.33066,9.0249 l 0,56.1255 z m 225.40931,-31.0625 1.79655,0 c 5.42514,0 9.04485,3.6507 9.04485,9.0493 0,7.4878 -7.15957,9.4019 -13.35435,9.4019 -8.12217,0 -15.87396,4.9106 -21.47209,10.4244 -6.98215,6.8868 -10.03849,15.6988 -10.03849,25.4001 l 0,43.7738 c 0,5.0259 -3.13399,9.0515 -8.33512,9.0515 l -1.42392,0 c -5.1989,0 -8.33068,-4.0256 -8.33068,-9.0515 l 0,-46.2867 c 0,-17.7881 8.6545,-32.3002 23.08013,-42.4762 8.619,-6.0728 18.4845,-9.2866 29.03312,-9.2866 z m -128.54423,86.7622 c 6.58291,2.3001 14.08849,1.9762 20.83998,0.8007 3.45114,-1.4749 12.28529,-5.3253 15.5346,-4.7619 l 0.50792,0.086 0.46577,0.224 c 1.98286,0.9626 3.87921,2.3266 4.88839,4.3383 2.36879,4.7376 1.23097,9.5018 -3.41788,12.1744 l -1.54813,0.9005 c -17.15594,9.901 -35.40313,8.5258 -52.50139,-0.7253 -8.17764,-4.4115 -14.43229,-10.9745 -19.04786,-18.9746 l -1.07794,-1.8631 c -11.01218,-19.0745 -9.52615,-39.136 2.89445,-57.2745 4.28731,-6.2746 9.89211,-11.112 16.44396,-14.9003 l 2.47748,-1.4372 c 16.15785,-9.3243 33.47348,-8.6878 50.06606,-0.499 8.92286,4.4004 16.1512,10.9634 21.13052,19.5868 l 0.89607,1.5614 c 3.61971,6.2636 -1.06907,11.7264 -5.90644,15.4637 -5.61588,4.3383 -11.28499,9.5505 -16.66799,14.1883 -11.99917,10.3623 -23.98282,20.749 -35.97757,31.1113 z m -15.53239,-10.9123 c 13.42311,-11.5002 26.84843,-23.0247 40.23162,-34.5736 4.57344,-3.9502 9.59046,-8.0379 14.12843,-12.1877 -3.6419,-4.589 -9.72355,-7.9004 -14.8914,-9.8633 -10.43109,-3.9746 -20.72022,-2.6505 -30.28407,2.8745 -12.52483,7.2372 -17.8546,18.7506 -17.38661,33.0742 0.18188,5.6514 1.70118,11.0765 4.69543,15.8895 1.05575,1.6879 2.23571,3.2737 3.5066,4.7864"
         style="fill:#354750;fill-opacity:1;fill-rule:evenodd;stroke:none"
         id="path58"
         inkscape:connector-curvature="0" />
      <path
         d="m 154.42704,1437.338 53.37082,0 0,54.5618 26.98595,0 c 12.4583,0 25.2759,-2.2246 37.0799,-6.2236 5.79554,-1.9629 12.30525,-4.6999 18.02538,-8.1377 -7.53441,-9.8367 -11.37815,-22.2617 -12.51153,-34.5004 -1.53926,-16.6503 1.82095,-38.3241 13.09041,-51.3614 l 5.61145,-6.4875 6.68273,5.3741 c 16.83211,13.5252 30.98715,32.4267 33.48236,53.963 20.26551,-5.9641 44.06204,-4.549 61.92551,5.749 l 7.32814,4.2385 -3.85702,7.5255 c -15.10877,29.4857 -46.69255,38.6237 -77.57103,36.9979 -46.2046,115.0878 -146.8025,169.5765 -268.777141,169.5765 -63.0145204,0 -120.82793,-23.5636 -153.75137,-79.4629 l -0.541188,-0.9116 -4.795221,-9.7635 c -11.12974,-24.6127 -14.82487,-51.5742 -12.31857,-78.5114 l 0.75189,-8.0645 45.639009,0 0,-54.5618 53.3664,0 0,-53.362 106.73944,0 0,-53.3753 64.043681,0 0,106.7373"
         style="fill:#354750;fill-opacity:1;fill-rule:evenodd;stroke:none"
         id="path60"
         inkscape:connector-curvature="0" />
      <path
         d="m 327.33718,1457.5258 c 3.57756,-27.811 -17.23358,-49.6623 -30.14212,-60.0247 -14.87366,17.2002 -17.187,62.2626 6.14819,81.2374 -13.02165,11.5621 -40.46229,22.0487 -68.55944,22.0487 l -342.03644,0 c -2.73252,29.3391 2.41537,56.3384 14.177229,79.4629 l 3.89253,7.113 c 2.46193,4.1875 5.15453,8.2264 8.06228,12.1123 0.002,0 0.002,0 0.002,0 14.06188,0.9005 27.02587,1.2132 38.88532,0.9515 0.002,0 0.005,0 0.006,0 23.31078,-0.5256 42.32980957,-3.2759 56.74436,-8.2619 2.14699,-0.7519 4.48471,0.3859 5.22551,2.5351 0.74303,2.1381 -0.39257,4.4759 -2.53512,5.2256 -1.91633,0.6631 -3.91693,1.2886 -5.97964,1.8741 -0.002,0 -0.005,0 -0.006,0 -11.35153043,3.2383 -23.52149,5.4274 -39.22466,6.39 0.92932,0.024 -0.97148,0.1375 -0.9759,0.1486 -0.53454,0.024 -1.20658,0.1 -1.74333,0.1375 -6.17924,0.3371 -12.85087,0.4125 -19.67111,0.4125 -7.459,0 -14.8049,-0.1375 -23.01579,-0.55 l -0.21071,0.1375 c 28.4986,32.0252 73.05968957,51.2371 128.91241,51.2371 118.215191,0 218.484841,-52.3993 262.884011,-170.0489 31.50173,3.236 61.77248,-4.7996 75.54602,-31.6748 -21.93564,-12.6623 -50.14369,-8.6256 -66.38583,-0.4635"
         style="fill:#48addf;fill-opacity:1;fill-rule:nonzero;stroke:none"
         id="path62"
         inkscape:connector-curvature="0" />
      <path
         d="m 327.33718,1457.5258 c 3.57756,-27.811 -17.23358,-49.6623 -30.14212,-60.0247 -14.87366,17.2002 -17.187,62.2626 6.14819,81.2374 -13.02165,11.5621 -40.46229,22.0487 -68.55944,22.0487 l -321.782001,0 c -1.39731,44.927 15.27289,79.026 44.76514,99.6397 0.002,0 0.005,0 0.006,0 23.31079,-0.5256 42.32980957,-3.2759 56.74436,-8.2619 2.14699,-0.7519 4.48472,0.3859 5.22552,2.5351 0.74302,2.1381 -0.39258,4.4759 -2.53513,5.2256 -1.91632,0.6631 -3.91692,1.2886 -5.97964,1.8741 -0.003,0 -0.005,0 -0.006,0 -11.35152043,3.2383 -24.56615,5.7002 -40.27153,6.6761 -0.005,0 -0.37928,-0.3615 -0.38372,-0.3615 40.2294,20.6359 98.56404,20.5627 165.446701,-5.1368 74.99153,-28.8025 144.77084,-83.6904 193.46399,-146.4765 -0.73414,0.3371 -1.45054,0.6742 -2.14032,1.0247"
         style="fill:#56beee;fill-opacity:1;fill-rule:nonzero;stroke:none"
         id="path64"
         inkscape:connector-curvature="0" />
      <path
         d="m -106.61385,1536.4254 c 2.12702,15.712 6.720424,30.426 13.538449,43.8247 l 3.89252,7.113 c 2.46194,4.1875 5.15454,8.2264 8.06452,12.1123 14.0641,0.9005 27.0303,1.2132 38.89196,0.9515 23.31079,-0.5256 42.32980957,-3.2759 56.74436,-8.2619 2.14699,-0.7519 4.48471,0.3859 5.22551,2.5351 0.74303,2.1381 -0.39257,4.4759 -2.53512,5.2256 -1.91633,0.6631 -3.91692,1.2886 -5.97964,1.8741 -0.002,0 -0.005,0 -0.006,0 -11.35152043,3.2383 -24.49739,5.5649 -40.20056,6.5386 -0.53897,0.024 -1.47939,0.038 -2.02279,0.062 -6.17923,0.3504 -12.7799,0.5633 -19.60013,0.5633 -7.459,0 -15.08437,-0.1508 -23.29748,-0.5633 28.4986,32.0384 73.33914957,51.3125 129.19188,51.3125 101.203411,0 189.249871,-38.4129 240.353951,-123.2876 l -402.26078,0"
         style="fill:#388bbd;fill-opacity:1;fill-rule:nonzero;stroke:none"
         id="path66"
         inkscape:connector-curvature="0" />
      <path
         d="m -83.919651,1536.4254 c 6.0506,27.587 20.58713,49.2521 41.69325,64.0015 23.31079,-0.5256 42.32980957,-3.2759 56.74436,-8.2619 2.14699,-0.7519 4.48471,0.3859 5.22551,2.5351 0.74303,2.1381 -0.39257,4.4759 -2.53512,5.2256 -1.91633,0.6631 -3.91692,1.2886 -5.97964,1.8741 -0.002,0 -0.005,0 -0.006,0 -11.35152043,3.2383 -24.77464,5.5649 -40.48004,6.5386 40.22719,20.6248 98.39548,20.3387 165.271491,-5.3608 40.45563,-15.5391 79.39418,-38.6769 114.32931,-66.5522 l -334.262471,0"
         style="fill:#409ccb;fill-opacity:1;fill-rule:nonzero;stroke:none"
         id="path68"
         inkscape:connector-curvature="0" />
      <path
         d="m -60.830661,1446.2386 46.25338,0 0,46.249 -46.25338,0 0,-46.249 z m 3.85481,3.8504 3.64855,0 0,38.5503 -3.64855,0 0,-38.5503 z m 6.86237,0 3.79494,0 0,38.5503 -3.79494,0 0,-38.5503 z m 7.00655,0 3.79494,0 0,38.5503 -3.79494,0 0,-38.5503 z m 7.00877,0 3.79715,0 0,38.5503 -3.79715,0 0,-38.5503 z m 7.00876,0 3.79715,0 0,38.5503 -3.79715,0 0,-38.5503 z m 7.00654,0 3.65298,0 0,38.5503 -3.65298,0 0,-38.5503"
         style="fill:#46b0d7;fill-opacity:1;fill-rule:evenodd;stroke:none"
         id="path70"
         inkscape:connector-curvature="0" />
      <path
         d="m -7.4620514,1392.8633 46.2578304,0 0,46.2623 -46.2578304,0 0,-46.2623 z m 3.85704,3.8637 3.64854997,0 0,38.5371 -3.64854997,0 0,-38.5371 z m 6.86237,0 3.79494,0 0,38.5371 -3.79494,0 0,-38.5371 z m 7.0043304,0 3.79715,0 0,38.5371 -3.79715,0 0,-38.5371 z m 7.00876,0 3.79715,0 0,38.5371 -3.79715,0 0,-38.5371 z m 7.01097,0 3.79494,0 0,38.5371 -3.79494,0 0,-38.5371 z m 7.00655,0 3.6552,0 0,38.5371 -3.6552,0 0,-38.5371"
         style="fill:#46b0d7;fill-opacity:1;fill-rule:evenodd;stroke:none"
         id="path72"
         inkscape:connector-curvature="0" />
      <path
         d="m -7.4620514,1446.2386 46.2578304,0 0,46.249 -46.2578304,0 0,-46.249 z m 3.85704,3.8504 3.64854997,0 0,38.5503 -3.64854997,0 0,-38.5503 z m 6.86237,0 3.79494,0 0,38.5503 -3.79494,0 0,-38.5503 z m 7.0043304,0 3.79715,0 0,38.5503 -3.79715,0 0,-38.5503 z m 7.00876,0 3.79715,0 0,38.5503 -3.79715,0 0,-38.5503 z m 7.01097,0 3.79494,0 0,38.5503 -3.79494,0 0,-38.5503 z m 7.00655,0 3.6552,0 0,38.5503 -3.6552,0 0,-38.5503"
         style="fill:#58c8f1;fill-opacity:1;fill-rule:evenodd;stroke:none"
         id="path74"
         inkscape:connector-curvature="0" />
      <path
         d="m 45.908769,1446.2386 46.25562,0 0,46.249 -46.25562,0 0,-46.249 z m 3.85483,3.8504 3.64855,0 0,38.5503 -3.64855,0 0,-38.5503 z m 6.86016,0 3.79715,0 0,38.5503 -3.79715,0 0,-38.5503 z m 7.01098,0 3.79494,0 0,38.5503 -3.79494,0 0,-38.5503 z m 7.00876,0 3.79494,0 0,38.5503 -3.79494,0 0,-38.5503 z m 7.00654,0 3.79937,0 0,38.5503 -3.79937,0 0,-38.5503 z m 7.00876,0 3.65078,0 0,38.5503 -3.65078,0 0,-38.5503"
         style="fill:#46b0d7;fill-opacity:1;fill-rule:evenodd;stroke:none"
         id="path76"
         inkscape:connector-curvature="0" />
      <path
         d="m 45.908769,1392.8633 46.25562,0 0,46.2623 -46.25562,0 0,-46.2623 z m 3.85483,3.8637 3.64855,0 0,38.5371 -3.64855,0 0,-38.5371 z m 6.86016,0 3.79715,0 0,38.5371 -3.79715,0 0,-38.5371 z m 7.01098,0 3.79494,0 0,38.5371 -3.79494,0 0,-38.5371 z m 7.00876,0 3.79494,0 0,38.5371 -3.79494,0 0,-38.5371 z m 7.00654,0 3.79937,0 0,38.5371 -3.79937,0 0,-38.5371 z m 7.00876,0 3.65078,0 0,38.5371 -3.65078,0 0,-38.5371"
         style="fill:#58c8f1;fill-opacity:1;fill-rule:evenodd;stroke:none"
         id="path78"
         inkscape:connector-curvature="0" />
      <path
         d="m 99.279609,1446.2386 46.255611,0 0,46.249 -46.255611,0 0,-46.249 z m 3.854811,3.8504 3.65078,0 0,38.5503 -3.65078,0 0,-38.5503 z m 6.86239,0 3.79715,0 0,38.5503 -3.79715,0 0,-38.5503 z m 7.00654,0 3.79715,0 0,38.5503 -3.79715,0 0,-38.5503 z m 7.01097,0 3.79717,0 0,38.5503 -3.79717,0 0,-38.5503 z m 7.00877,0 3.79494,0 0,38.5503 -3.79494,0 0,-38.5503 z m 7.00655,0 3.65299,0 0,38.5503 -3.65299,0 0,-38.5503"
         style="fill:#58c8f1;fill-opacity:1;fill-rule:evenodd;stroke:none"
         id="path80"
         inkscape:connector-curvature="0" />
      <path
         d="m 99.279609,1392.8633 46.255611,0 0,46.2623 -46.255611,0 0,-46.2623 z m 3.854811,3.8637 3.65078,0 0,38.5371 -3.65078,0 0,-38.5371 z m 6.86239,0 3.79715,0 0,38.5371 -3.79715,0 0,-38.5371 z m 7.00654,0 3.79715,0 0,38.5371 -3.79715,0 0,-38.5371 z m 7.01097,0 3.79717,0 0,38.5371 -3.79717,0 0,-38.5371 z m 7.00877,0 3.79494,0 0,38.5371 -3.79494,0 0,-38.5371 z m 7.00655,0 3.65299,0 0,38.5371 -3.65299,0 0,-38.5371"
         style="fill:#46b0d7;fill-opacity:1;fill-rule:evenodd;stroke:none"
         id="path82"
         inkscape:connector-curvature="0" />
      <path
         d="m 99.279609,1339.5013 46.255611,0 0,46.249 -46.255611,0 0,-46.249 z m 3.854811,3.8504 3.65078,0 0,38.5505 -3.65078,0 0,-38.5505 z m 6.86239,0 3.79715,0 0,38.5505 -3.79715,0 0,-38.5505 z m 7.00654,0 3.79715,0 0,38.5505 -3.79715,0 0,-38.5505 z m 7.01097,0 3.79717,0 0,38.5505 -3.79717,0 0,-38.5505 z m 7.00877,0 3.79494,0 0,38.5505 -3.79494,0 0,-38.5505 z m 7.00655,0 3.65299,0 0,38.5505 -3.65299,0 0,-38.5505"
         style="fill:#58c8f1;fill-opacity:1;fill-rule:evenodd;stroke:none"
         id="path84"
         inkscape:connector-curvature="0" />
      <path
         d="m 152.64823,1446.2386 46.25561,0 0,46.249 -46.25561,0 0,-46.249 z m 3.8526,3.8504 3.65298,0 0,38.5503 -3.65298,0 0,-38.5503 z m 6.86237,0 3.79715,0 0,38.5503 -3.79715,0 0,-38.5503 z m 7.00876,0 3.79715,0 0,38.5503 -3.79715,0 0,-38.5503 z m 7.00876,0 3.79715,0 0,38.5503 -3.79715,0 0,-38.5503 z m 7.01098,0 3.79273,0 0,38.5503 -3.79273,0 0,-38.5503 z m 7.00876,0 3.64855,0 0,38.5503 -3.64855,0 0,-38.5503"
         style="fill:#46b0d7;fill-opacity:1;fill-rule:evenodd;stroke:none"
         id="path86"
         inkscape:connector-curvature="0" />
      <path
         d="m 35.899109,1567.4879 c 7.04648,0 12.75994,5.7135 12.75994,12.7622 0,7.0376 -5.71346,12.7511 -12.75994,12.7511 -7.04869,0 -12.76215,-5.7135 -12.76215,-12.7511 0,-7.0487 5.71346,-12.7622 12.76215,-12.7622"
         style="fill:#d7f2f2;fill-opacity:1;fill-rule:evenodd;stroke:none"
         id="path88"
         inkscape:connector-curvature="0" />
      <path
         d="m 35.899109,1571.101 c 1.16665,0 2.28006,0.2262 3.3092,0.6255 -1.11341,0.6365 -1.86752,1.8498 -1.86752,3.2249 0,2.0627 1.66791,3.724 3.7284,3.724 1.41284,0 2.63715,-0.7741 3.27148,-1.9363 0.44804,1.0757 0.69646,2.2623 0.69646,3.511 0,5.0392 -4.09215,9.138 -9.13802,9.138 -5.04586,0 -9.14022,-4.0988 -9.14022,-9.138 0,-5.0503 4.09436,-9.1491 9.14022,-9.1491"
         style="fill:#354750;fill-opacity:1;fill-rule:evenodd;stroke:none"
         id="path90"
         inkscape:connector-curvature="0" />
      <path
         d="m -189.80585,1541.0387 593.5984,0 c -12.92627,-3.2759 -40.89479,-7.7007 -36.28364,-24.6371 -23.49931,27.1878 -80.17714,19.0745 -94.48298,5.6625 -15.92719,23.1001 -108.65577,14.3236 -115.12336,-3.6751 -19.96831,23.4371 -81.847251,23.4371 -101.817781,0 -6.46979,17.9987 -99.19615,26.7752 -115.12778,3.6751 -14.30363,13.412 -70.974799,21.5253 -94.478549,-5.6625 4.61115,16.9364 -23.35691,21.3612 -36.28431,24.6371"
         style="fill:#354750;fill-opacity:1;fill-rule:evenodd;stroke:none"
         id="path92"
         inkscape:connector-curvature="0" />
      <path
         d="m 69.820639,1659.438 c -31.60154,-15.0001 -48.94822,-35.3743 -58.59858,-57.6382 -11.73967043,3.3514 -25.85035,5.4895 -42.24331,6.4144 -6.17702,0.3504 -12.67565,0.5256 -19.49367,0.5256 -7.85824,0 -16.14233,-0.2395 -24.83674,-0.6898 28.9799,28.9644 64.63142,51.2638 130.64464,51.663 4.87286,0 9.71246,-0.086 14.52766,-0.275"
         style="fill:#c2e1e1;fill-opacity:1;fill-rule:nonzero;stroke:none"
         id="path94"
         inkscape:connector-curvature="0" />
      <path
         d="m 22.959519,1622.3382 c -4.37161,-5.9375 -8.61234,-13.3987 -11.73081,-20.5384 -11.74189043,3.3514 -25.85479,5.4895 -42.24996,6.4144 11.2606,6.1127 27.3696596,11.7751 53.98077,14.124"
         style="fill:#d7f2f2;fill-opacity:1;fill-rule:nonzero;stroke:none"
         id="path96"
         inkscape:connector-curvature="0" />
    </g>
  </g>
</svg>
